<?xml version="1.0" encoding="UTF-8" standalone="no"?>
<!-- Created with Inkscape (http://www.inkscape.org/) -->

<svg
   width="120.97511mm"
   height="15.70938mm"
   viewBox="0 0 120.97511 15.70938"
   version="1.1"
   id="svg1"
   inkscape:export-filename="engineered-legacy-header.svg"
   inkscape:export-xdpi="96"
   inkscape:export-ydpi="96"
   sodipodi:docname="engineered legacy header.svg"
   xmlns:inkscape="http://www.inkscape.org/namespaces/inkscape"
   xmlns:sodipodi="http://sodipodi.sourceforge.net/DTD/sodipodi-0.dtd"
   xmlns="http://www.w3.org/2000/svg"
   xmlns:svg="http://www.w3.org/2000/svg">
  <sodipodi:namedview
     id="namedview1"
     pagecolor="#ffffff"
     bordercolor="#000000"
     borderopacity="0.25"
     inkscape:showpageshadow="2"
     inkscape:pageopacity="0.0"
     inkscape:pagecheckerboard="true"
     inkscape:deskcolor="#d1d1d1"
     inkscape:document-units="mm"
     showgrid="false">
    <inkscape:page
       x="0"
       y="0"
       width="120.97511"
       height="15.70938"
       id="page2"
       margin="0"
       bleed="0" />
  </sodipodi:namedview>
  <defs
     id="defs1" />
  <g
     inkscape:label="Layer 1"
     inkscape:groupmode="layer"
     id="layer1"
     transform="translate(-23.793795,-11.965118)">
    <path
       style="font-style:italic;font-weight:bold;font-size:19.7556px;font-family:Sans;-inkscape-font-specification:'Sans, Bold Italic';white-space:pre;fill:#ffffff;stroke-width:0.264583"
       d="m 37.520465,12.510367 -0.627009,2.720254 h -6.704171 l -0.59807,2.565913 h 6.221857 l -0.636655,2.729899 H 28.95456 l -0.839227,3.627005 h 6.704171 l -0.617362,2.720254 H 23.793796 l 3.318323,-14.363325 z m 10.13825,14.363325 H 37.288954 l 3.318323,-14.363325 h 3.723468 L 41.658723,24.09556 h 6.646293 z"
       id="text4"
       aria-label="EL" />
    <path
       style="font-weight:bold;font-size:8.81944px;font-family:Sans;-inkscape-font-specification:'Sans, Bold';fill:#ffffff;stroke-width:0.264583"
       d="m 56.792067,18.665825 h -4.637958 v -6.412181 h 4.637958 v 1.240234 h -2.992926 v 1.106736 h 2.777607 v 1.240234 h -2.777607 v 1.584743 h 2.992926 z m 6.158105,0 h -1.558905 v -2.398647 q 0,-0.292833 -0.03014,-0.581359 -0.03014,-0.292833 -0.103353,-0.430637 -0.08613,-0.159335 -0.254075,-0.232544 -0.163642,-0.07321 -0.460782,-0.07321 -0.211012,0 -0.430636,0.0689 -0.215319,0.0689 -0.469394,0.219625 v 3.427868 h -1.550293 v -4.83605 h 1.550293 v 0.533989 q 0.413411,-0.322977 0.792371,-0.495232 0.383267,-0.172255 0.848354,-0.172255 0.783759,0 1.223009,0.456475 0.443556,0.456475 0.443556,1.365119 z m 6.12796,-0.555521 q 0,0.680406 -0.193787,1.145493 -0.193786,0.465088 -0.542602,0.727776 -0.348816,0.266995 -0.844048,0.383267 -0.490926,0.120578 -1.111043,0.120578 -0.503845,0 -0.99477,-0.06029 -0.48662,-0.06029 -0.844048,-0.146416 v -1.21009 h 0.18948 q 0.28422,0.111966 0.693325,0.2024 0.409105,0.09474 0.732082,0.09474 0.430637,0 0.697632,-0.08182 0.271301,-0.07751 0.413411,-0.223931 0.133497,-0.137804 0.193787,-0.353122 0.06029,-0.215319 0.06029,-0.516764 v -0.09043 q -0.279914,0.228237 -0.620117,0.361735 -0.340203,0.133497 -0.757921,0.133497 -1.016302,0 -1.567517,-0.611504 -0.551215,-0.611504 -0.551215,-1.860351 0,-0.598585 0.167948,-1.033528 0.167948,-0.434943 0.4737,-0.75792 0.28422,-0.301446 0.697632,-0.469394 0.417717,-0.167949 0.85266,-0.167949 0.39188,0 0.710551,0.09474 0.322978,0.09043 0.585666,0.254076 l 0.05598,-0.215318 H 69.07813 Z M 67.52784,17.141371 V 14.94943 q -0.133498,-0.05598 -0.327284,-0.08613 -0.193787,-0.03445 -0.348816,-0.03445 -0.611504,0 -0.917256,0.353122 -0.305752,0.348816 -0.305752,0.977545 0,0.697632 0.258382,0.973239 0.262688,0.275608 0.775146,0.275608 0.232544,0 0.456475,-0.07321 0.223931,-0.07321 0.409105,-0.193786 z m 4.56475,1.524454 h -1.550293 v -4.83605 h 1.550293 z m 0.04306,-5.525069 h -1.636419 v -1.175638 h 1.636419 z m 6.278682,5.525069 H 76.85543 v -2.398647 q 0,-0.292833 -0.03014,-0.581359 -0.03015,-0.292833 -0.103353,-0.430637 -0.08613,-0.159335 -0.254076,-0.232544 -0.163642,-0.07321 -0.460781,-0.07321 -0.211012,0 -0.430637,0.0689 -0.215318,0.0689 -0.469394,0.219625 v 3.427868 h -1.550292 v -4.83605 h 1.550292 v 0.533989 q 0.413412,-0.322977 0.792372,-0.495232 0.383267,-0.172255 0.848354,-0.172255 0.783759,0 1.223009,0.456475 0.443555,0.456475 0.443555,1.365119 z m 6.18825,-2.131652 h -3.548447 q 0.03445,0.568441 0.430637,0.869886 0.400492,0.301446 1.175638,0.301446 0.490926,0 0.951707,-0.176561 0.460782,-0.176561 0.727776,-0.37896 h 0.172255 v 1.24454 q -0.525377,0.211012 -0.990464,0.305752 -0.465088,0.09474 -1.029222,0.09474 -1.455552,0 -2.230698,-0.654568 -0.775146,-0.654568 -0.775146,-1.864657 0,-1.19717 0.732082,-1.894801 0.736389,-0.701938 2.01538,-0.701938 1.179944,0 1.774223,0.598585 0.594279,0.594278 0.594279,1.713934 z m -1.54168,-0.908643 q -0.01292,-0.48662 -0.241156,-0.732083 -0.228238,-0.245463 -0.710551,-0.245463 -0.447862,0 -0.736389,0.232544 -0.288526,0.232544 -0.322977,0.745002 z m 7.398341,0.908643 h -3.548447 q 0.03445,0.568441 0.430637,0.869886 0.400492,0.301446 1.175638,0.301446 0.490926,0 0.951707,-0.176561 0.460781,-0.176561 0.727776,-0.37896 h 0.172255 v 1.24454 q -0.525377,0.211012 -0.990465,0.305752 -0.465087,0.09474 -1.029221,0.09474 -1.455552,0 -2.230698,-0.654568 -0.775147,-0.654568 -0.775147,-1.864657 0,-1.19717 0.732083,-1.894801 0.736389,-0.701938 2.01538,-0.701938 1.179944,0 1.774223,0.598585 0.594279,0.594278 0.594279,1.713934 z m -1.54168,-0.908643 q -0.01292,-0.48662 -0.241156,-0.732083 -0.228238,-0.245463 -0.710551,-0.245463 -0.447862,0 -0.736389,0.232544 -0.288526,0.232544 -0.322977,0.745002 z m 6.140879,-0.318671 h -0.137803 q -0.09905,-0.03445 -0.318672,-0.05168 -0.219624,-0.01722 -0.366041,-0.01722 -0.33159,0 -0.585666,0.04306 -0.254075,0.04306 -0.546908,0.146417 v 3.238388 h -1.550293 v -4.83605 h 1.550293 v 0.71055 q 0.512457,-0.439249 0.891418,-0.581359 0.37896,-0.146417 0.697631,-0.146417 0.08182,0 0.185174,0.0043 0.103353,0.0043 0.180867,0.01292 z m 5.641348,1.227314 h -3.548454 q 0.03445,0.568441 0.430636,0.869886 0.400492,0.301446 1.175639,0.301446 0.490925,0 0.951707,-0.176561 0.460782,-0.176561 0.727782,-0.37896 h 0.17225 v 1.24454 q -0.52538,0.211012 -0.990466,0.305752 -0.465088,0.09474 -1.029222,0.09474 -1.455552,0 -2.230698,-0.654568 -0.775146,-0.654568 -0.775146,-1.864657 0,-1.19717 0.732082,-1.894801 0.736389,-0.701938 2.01538,-0.701938 1.179945,0 1.77423,0.598585 0.59428,0.594278 0.59428,1.713934 z M 99.158106,15.62553 q -0.01292,-0.48662 -0.241157,-0.732083 -0.228237,-0.245463 -0.71055,-0.245463 -0.447863,0 -0.736389,0.232544 -0.288527,0.232544 -0.322978,0.745002 z m 7.338044,3.040295 h -1.55029 V 18.16198 q -0.40049,0.327284 -0.74931,0.482313 -0.34881,0.155029 -0.80529,0.155029 -0.8828,0 -1.41248,-0.680406 -0.52969,-0.680406 -0.52969,-1.834512 0,-0.615811 0.17656,-1.089511 0.18087,-0.478007 0.49093,-0.81821 0.29283,-0.322977 0.71055,-0.499538 0.41772,-0.180868 0.83544,-0.180868 0.43494,0 0.71055,0.09474 0.27991,0.09043 0.57274,0.232544 v -2.058443 h 1.55029 z m -1.55029,-1.334974 v -2.372808 q -0.16364,-0.0689 -0.34451,-0.09905 -0.18086,-0.03014 -0.33159,-0.03014 -0.6115,0 -0.91725,0.383266 -0.30576,0.378961 -0.30576,1.05506 0,0.710551 0.24547,1.033529 0.24546,0.318671 0.78806,0.318671 0.21101,0 0.44787,-0.07752 0.23685,-0.08182 0.41771,-0.211012 z m 10.74008,1.334974 h -4.62504 v -6.412181 h 1.65365 v 5.171947 h 2.97139 z m 5.67149,-2.131652 h -3.54845 q 0.0344,0.568441 0.43064,0.869886 0.40049,0.301446 1.17564,0.301446 0.49092,0 0.9517,-0.176561 0.46078,-0.176561 0.72778,-0.37896 h 0.17225 v 1.24454 q -0.52537,0.211012 -0.99046,0.305752 -0.46509,0.09474 -1.02922,0.09474 -1.45555,0 -2.2307,-0.654568 -0.77515,-0.654568 -0.77515,-1.864657 0,-1.19717 0.73209,-1.894801 0.73638,-0.701938 2.01538,-0.701938 1.17994,0 1.77422,0.598585 0.59428,0.594278 0.59428,1.713934 z m -1.54168,-0.908643 q -0.0129,-0.48662 -0.24116,-0.732083 -0.22824,-0.245463 -0.71055,-0.245463 -0.44786,0 -0.73639,0.232544 -0.28852,0.232544 -0.32298,0.745002 z m 7.33805,2.484774 q 0,0.680406 -0.19379,1.145493 -0.19379,0.465088 -0.5426,0.727776 -0.34882,0.266995 -0.84405,0.383267 -0.49093,0.120578 -1.11104,0.120578 -0.50385,0 -0.99477,-0.06029 -0.48662,-0.06029 -0.84405,-0.146416 v -1.21009 h 0.18948 q 0.28422,0.111966 0.69332,0.2024 0.40911,0.09474 0.73209,0.09474 0.43063,0 0.69763,-0.08182 0.2713,-0.07751 0.41341,-0.223931 0.1335,-0.137804 0.19379,-0.353122 0.0603,-0.215319 0.0603,-0.516764 v -0.09043 q -0.27992,0.228237 -0.62012,0.361735 -0.3402,0.133497 -0.75792,0.133497 -1.0163,0 -1.56752,-0.611504 -0.55121,-0.611504 -0.55121,-1.860351 0,-0.598585 0.16794,-1.033528 0.16795,-0.434943 0.4737,-0.75792 0.28422,-0.301446 0.69764,-0.469394 0.41771,-0.167949 0.85266,-0.167949 0.39188,0 0.71055,0.09474 0.32297,0.09043 0.58566,0.254076 l 0.056,-0.215318 h 1.50292 z m -1.55029,-0.968933 V 14.94943 q -0.1335,-0.05598 -0.32729,-0.08613 -0.19379,-0.03445 -0.34881,-0.03445 -0.61151,0 -0.91726,0.353122 -0.30575,0.348816 -0.30575,0.977545 0,0.697632 0.25838,0.973239 0.26269,0.275608 0.77515,0.275608 0.23254,0 0.45647,-0.07321 0.22393,-0.07321 0.40911,-0.193786 z m 5.94278,0.262688 v -1.00769 q -0.31436,0.02584 -0.6804,0.07321 -0.36605,0.04306 -0.55553,0.103352 -0.23254,0.07321 -0.35742,0.215319 -0.12058,0.137804 -0.12058,0.366041 0,0.150723 0.0258,0.245463 0.0258,0.09474 0.12919,0.180867 0.099,0.08613 0.23685,0.129191 0.1378,0.03876 0.43063,0.03876 0.23255,0 0.4694,-0.09474 0.24115,-0.09474 0.42202,-0.24977 z m 0,0.749308 q -0.12488,0.09474 -0.31006,0.228238 -0.18517,0.133497 -0.34881,0.211012 -0.22824,0.103352 -0.4737,0.150722 -0.24547,0.05168 -0.5383,0.05168 -0.68902,0 -1.15411,-0.42633 -0.46508,-0.426331 -0.46508,-1.089511 0,-0.529683 0.23685,-0.86558 0.23685,-0.335897 0.67179,-0.529683 0.43064,-0.193787 1.06798,-0.275608 0.63734,-0.08182 1.32205,-0.120578 v -0.02584 q 0,-0.400492 -0.32728,-0.551215 -0.32728,-0.155029 -0.96463,-0.155029 -0.38326,0 -0.81821,0.137803 -0.43494,0.133498 -0.62442,0.206706 h -0.14211 v -1.167026 q 0.24546,-0.0646 0.79668,-0.150722 0.55552,-0.09043 1.11104,-0.09043 1.32206,0 1.90772,0.409105 0.58997,0.404798 0.58997,1.274684 v 3.290065 h -1.53737 z m 5.48201,0.641649 q -0.63304,0 -1.15841,-0.150723 -0.52107,-0.150723 -0.90865,-0.465088 -0.38326,-0.314364 -0.59427,-0.792371 -0.21102,-0.478007 -0.21102,-1.119656 0,-0.676099 0.22393,-1.167025 0.22824,-0.490926 0.63304,-0.813903 0.39188,-0.305753 0.90434,-0.447863 0.51245,-0.14211 1.06367,-0.14211 0.49523,0 0.91295,0.107659 0.41772,0.10766 0.77945,0.279914 v 1.322055 h -0.21962 q -0.0904,-0.07752 -0.21963,-0.180867 -0.12488,-0.103353 -0.31006,-0.2024 -0.17656,-0.09474 -0.38757,-0.155029 -0.21101,-0.0646 -0.49092,-0.0646 -0.62012,0 -0.95602,0.396185 -0.33159,0.39188 -0.33159,1.067979 0,0.697632 0.3402,1.059367 0.34451,0.361735 0.97324,0.361735 0.29284,0 0.52538,-0.0646 0.23685,-0.0689 0.39188,-0.159336 0.14642,-0.08613 0.25838,-0.180867 0.11197,-0.09474 0.20671,-0.185174 h 0.21962 v 1.322055 q -0.36604,0.172255 -0.76653,0.271301 -0.39619,0.103353 -0.8785,0.103353 z m 4.85327,-1.838819 1.10243,-3.126422 h 1.59336 l -2.68717,6.610273 h -1.67949 l 0.76654,-1.808674 -1.88189,-4.801599 h 1.62781 z"
       id="text5"
       aria-label="Engineered Legacy" />
    <path
       style="font-style:italic;font-weight:bold;font-size:3.88056px;font-family:Sans;-inkscape-font-specification:'Sans, Bold Italic';fill:#ffffff;stroke-width:0.264583"
       d="m 54.727829,24.832279 q 0,0.504018 -0.418752,0.812872 -0.416857,0.308853 -1.1672,0.308853 h -0.276641 l -0.212218,0.91898 h -0.731395 l 0.651813,-2.821364 h 1.01372 q 0.276642,0 0.481281,0.0379 0.206534,0.0379 0.356223,0.130741 0.147795,0.09285 0.225482,0.242535 0.07769,0.147795 0.07769,0.369487 z m -0.77687,0.07011 q 0,-0.164848 -0.119373,-0.24443 -0.119372,-0.07958 -0.354328,-0.07958 h -0.293695 l -0.195165,0.845082 h 0.261483 q 0.331591,0 0.515387,-0.134531 0.185691,-0.136426 0.185691,-0.38654 z m 2.66599,0.492649 h -0.06063 q -0.04547,-0.01516 -0.128846,-0.02274 -0.08337,-0.0076 -0.164848,-0.0076 -0.134532,0 -0.259589,0.02084 -0.125057,0.01895 -0.257693,0.06253 l -0.329696,1.424893 h -0.685919 l 0.492649,-2.127866 h 0.685919 l -0.072,0.312643 q 0.193271,-0.14211 0.384646,-0.231166 0.19327,-0.08906 0.388435,-0.08906 0.036,0 0.07958,0.0019 0.04547,0.0019 0.07958,0.0057 z m 1.764063,0.140216 q 0.0057,-0.03411 0.0076,-0.06253 0.0038,-0.02842 0.0038,-0.05874 0,-0.149689 -0.09285,-0.229271 -0.09284,-0.07958 -0.267167,-0.07958 -0.210323,0 -0.354329,0.113688 -0.14211,0.113689 -0.216007,0.316433 z m -0.521071,1.394576 q -0.543809,0 -0.839399,-0.24064 -0.295589,-0.24064 -0.295589,-0.665077 0,-0.289905 0.09663,-0.53244 0.09663,-0.242535 0.278536,-0.426331 0.174322,-0.178111 0.435805,-0.282326 0.261483,-0.104214 0.574126,-0.104214 0.475596,0 0.716236,0.19327 0.242535,0.191375 0.242535,0.566547 0,0.128847 -0.02653,0.252009 -0.02463,0.123162 -0.06632,0.24443 h -1.580267 q 0,0.01137 0,0.02274 0,0.0095 0,0.02084 0,0.221692 0.155374,0.346749 0.155374,0.125057 0.475595,0.125057 0.223587,0 0.422542,-0.07579 0.200849,-0.07579 0.348644,-0.168637 h 0.07579 l -0.126952,0.547598 q -0.198954,0.08716 -0.418752,0.130742 -0.219797,0.04547 -0.468016,0.04547 z m 2.196078,0.0019 q -0.272852,0 -0.52865,-0.05116 -0.255799,-0.05116 -0.392225,-0.119373 l 0.130742,-0.560862 h 0.06253 q 0.04169,0.036 0.104215,0.07958 0.06442,0.04358 0.181901,0.09095 0.100424,0.04358 0.233061,0.07579 0.132636,0.03032 0.286115,0.03032 0.229272,0 0.34296,-0.05306 0.115583,-0.05305 0.115583,-0.151584 0,-0.07579 -0.08148,-0.115583 -0.08148,-0.03979 -0.337275,-0.09853 -0.43391,-0.100425 -0.594968,-0.242535 -0.159164,-0.14211 -0.159164,-0.354329 0,-0.360012 0.322117,-0.566546 0.322117,-0.208429 0.87161,-0.208429 0.238745,0 0.477491,0.04927 0.238745,0.04737 0.350538,0.10232 l -0.125057,0.538124 h -0.05874 q -0.134531,-0.104214 -0.325906,-0.168637 -0.18948,-0.06632 -0.39033,-0.06632 -0.217902,0 -0.33538,0.05306 -0.115583,0.05116 -0.115583,0.159164 0,0.08337 0.100424,0.128846 0.100425,0.04358 0.316433,0.09095 0.401698,0.08716 0.577915,0.219797 0.178112,0.132637 0.178112,0.371382 0,0.356223 -0.325907,0.562757 -0.325906,0.204639 -0.881084,0.204639 z m 3.204115,-1.396471 q 0.0057,-0.03411 0.0076,-0.06253 0.0038,-0.02842 0.0038,-0.05874 0,-0.149689 -0.09285,-0.229271 -0.09285,-0.07958 -0.267168,-0.07958 -0.210323,0 -0.354328,0.113688 -0.142111,0.113689 -0.216008,0.316433 z m -0.521071,1.394576 q -0.543809,0 -0.839399,-0.24064 -0.295589,-0.24064 -0.295589,-0.665077 0,-0.289905 0.09663,-0.53244 0.09663,-0.242535 0.278536,-0.426331 0.174322,-0.178111 0.435805,-0.282326 0.261483,-0.104214 0.574126,-0.104214 0.475596,0 0.716236,0.19327 0.242535,0.191375 0.242535,0.566547 0,0.128847 -0.02653,0.252009 -0.02463,0.123162 -0.06632,0.24443 h -1.580267 q 0,0.01137 0,0.02274 0,0.0095 0,0.02084 0,0.221692 0.155374,0.346749 0.155374,0.125057 0.475596,0.125057 0.223587,0 0.422541,-0.07579 0.200849,-0.07579 0.348644,-0.168637 h 0.07579 L 63.62582,26.75362 q -0.198955,0.08716 -0.418752,0.130742 -0.219798,0.04547 -0.468017,0.04547 z m 3.262853,-1.534792 h -0.06063 q -0.04547,-0.01516 -0.128846,-0.02274 -0.08337,-0.0076 -0.164848,-0.0076 -0.134532,0 -0.259589,0.02084 -0.125057,0.01895 -0.257693,0.06253 l -0.329696,1.424893 H 64.114695 L 64.607344,24.7451 h 0.685919 l -0.072,0.312643 q 0.19327,-0.14211 0.384645,-0.231166 0.19327,-0.08906 0.388435,-0.08906 0.036,0 0.07958,0.0019 0.04547,0.0019 0.07958,0.0057 z m 2.654621,-0.649918 -1.313099,2.127866 h -0.77687 l -0.322117,-2.127866 h 0.702973 l 0.155374,1.464684 0.82045,-1.464684 z m 1.083829,0 -0.492649,2.127866 h -0.685919 l 0.492649,-2.127866 z m 0.208429,-0.82045 -0.119373,0.517282 h -0.723815 l 0.119373,-0.517282 z m 2.431034,1.301731 q 0,0.05684 -0.0076,0.123162 -0.0076,0.06632 -0.02463,0.138321 l -0.318327,1.385102 h -0.689709 l 0.242535,-1.055406 q 0.02653,-0.117478 0.04169,-0.20085 0.01516,-0.08337 0.01516,-0.155374 0,-0.123162 -0.06253,-0.180006 -0.06253,-0.05684 -0.229272,-0.05684 -0.08148,0 -0.187586,0.036 -0.106109,0.03411 -0.238745,0.104214 l -0.346749,1.508265 h -0.685919 l 0.490754,-2.127866 h 0.685919 l -0.05495,0.234956 q 0.210323,-0.138321 0.38275,-0.216008 0.174322,-0.07769 0.382751,-0.07769 0.286116,0 0.445279,0.138321 0.159164,0.138321 0.159164,0.401699 z m 2.836523,-0.481281 -0.428226,1.883436 q -0.07011,0.303169 -0.198954,0.504018 -0.128847,0.200849 -0.312643,0.320222 -0.189481,0.123162 -0.411173,0.172427 -0.221692,0.04927 -0.498333,0.04927 -0.229272,0 -0.439595,-0.02842 -0.210323,-0.02653 -0.354329,-0.06253 l 0.104215,-0.522966 h 0.08337 q 0.157269,0.06063 0.318327,0.09664 0.161059,0.036 0.286116,0.036 0.180006,0 0.312643,-0.03411 0.132636,-0.03221 0.208428,-0.09474 0.08148,-0.06632 0.128847,-0.162953 0.04927,-0.09664 0.07958,-0.236851 l 0.0095,-0.03979 q -0.147795,0.100424 -0.293695,0.159163 -0.1459,0.05874 -0.329696,0.05874 -0.358118,0 -0.560862,-0.180006 -0.20085,-0.180007 -0.20085,-0.543809 0,-0.627181 0.354329,-1.028879 0.354328,-0.403594 0.860241,-0.403594 0.181901,0 0.329696,0.04358 0.14969,0.04358 0.24064,0.109899 l 0.04737,-0.09474 z m -0.799608,0.49265 q -0.05495,-0.02463 -0.1459,-0.04548 -0.08906,-0.02274 -0.157268,-0.02274 -0.305064,0 -0.490755,0.229271 -0.185691,0.229271 -0.185691,0.589284 0,0.162953 0.07958,0.253904 0.07958,0.09095 0.286116,0.09095 0.100424,0 0.202744,-0.0379 0.104214,-0.03979 0.195165,-0.09285 z m 3.617181,1.690165 q -0.572231,0 -0.882979,-0.280431 -0.310748,-0.282326 -0.310748,-0.807187 0,-0.414962 0.136426,-0.752237 0.138321,-0.337275 0.378961,-0.5836 0.234956,-0.238745 0.562757,-0.373276 0.329696,-0.134532 0.691604,-0.134532 0.2918,0 0.541914,0.06063 0.250114,0.05874 0.450964,0.174322 l -0.166743,0.684025 h -0.08337 q -0.180006,-0.19327 -0.358118,-0.284221 -0.178111,-0.09095 -0.418752,-0.09095 -0.422541,0 -0.697288,0.33917 -0.272851,0.33917 -0.272851,0.864031 0,0.337276 0.151584,0.48886 0.151584,0.151584 0.443384,0.151584 0.261483,0 0.490755,-0.104214 0.229271,-0.106109 0.43391,-0.269062 h 0.07579 l -0.164848,0.67455 q -0.08527,0.03411 -0.198954,0.08337 -0.113689,0.04737 -0.217903,0.07769 -0.136426,0.03979 -0.255799,0.06063 -0.117478,0.02084 -0.329696,0.02084 z m 3.353806,-1.532897 h -0.06063 q -0.04547,-0.01516 -0.128847,-0.02274 -0.08337,-0.0076 -0.164848,-0.0076 -0.134531,0 -0.259588,0.02084 -0.125057,0.01895 -0.257693,0.06253 l -0.329696,1.424893 h -0.68592 l 0.49265,-2.127866 h 0.685919 l -0.072,0.312643 q 0.19327,-0.14211 0.384646,-0.231166 0.19327,-0.08906 0.388435,-0.08906 0.036,0 0.07958,0.0019 0.04548,0.0019 0.07958,0.0057 z m 1.220254,-0.649918 -0.492649,2.127866 h -0.685919 l 0.492649,-2.127866 z m 0.208429,-0.82045 -0.119373,0.517282 h -0.723816 l 0.119373,-0.517282 z m 0.756026,2.990002 q -0.354329,0 -0.505913,-0.115583 -0.151584,-0.117478 -0.151584,-0.34675 0,-0.06063 0.0095,-0.117478 0.0095,-0.05684 0.02463,-0.132636 l 0.231166,-1.008036 h -0.280431 l 0.104215,-0.449069 h 0.280431 l 0.140215,-0.608232 h 0.684025 l -0.140216,0.608232 h 0.640444 l -0.104214,0.449069 H 83.86424 l -0.176217,0.767396 q -0.01895,0.07958 -0.036,0.161058 -0.01705,0.07958 -0.01705,0.136426 0,0.113689 0.06253,0.159164 0.06442,0.04358 0.19706,0.04358 0.05305,0 0.13832,-0.01895 0.08716,-0.02084 0.138321,-0.04547 h 0.05684 l -0.106109,0.456648 q -0.115583,0.02842 -0.24443,0.04358 -0.126951,0.01705 -0.305063,0.01705 z m 2.129759,-2.169552 -0.49265,2.127866 H 84.52363 l 0.492649,-2.127866 z m 0.208428,-0.82045 -0.119373,0.517282 h -0.723815 l 0.119373,-0.517282 z m 1.038356,3.00516 q -0.217902,0 -0.409278,-0.05495 -0.18948,-0.05306 -0.33159,-0.166743 -0.138321,-0.111794 -0.216008,-0.280431 -0.07769,-0.168638 -0.07769,-0.39033 0,-0.286115 0.108004,-0.530545 0.109898,-0.246325 0.306958,-0.430121 0.19327,-0.180006 0.471806,-0.284221 0.278537,-0.106109 0.602548,-0.106109 0.195165,0 0.38654,0.04358 0.19327,0.04358 0.358118,0.126952 l -0.144005,0.581705 h -0.09664 q -0.111793,-0.134531 -0.253904,-0.198955 -0.140215,-0.06632 -0.316432,-0.06632 -0.322117,0 -0.517282,0.229272 -0.195164,0.227376 -0.195164,0.568441 0,0.236851 0.119372,0.354328 0.121268,0.117478 0.375172,0.117478 0.197059,0 0.358118,-0.07958 0.162953,-0.08148 0.278536,-0.180006 h 0.09664 l -0.144002,0.5817 q -0.204639,0.08906 -0.360013,0.126952 -0.153479,0.0379 -0.399804,0.0379 z m 2.705779,-1.061091 q -0.181901,0.01516 -0.341065,0.036 -0.159163,0.02084 -0.270957,0.06063 -0.115583,0.04169 -0.176217,0.117477 -0.06063,0.07579 -0.06063,0.20085 0,0.109898 0.07958,0.155374 0.08148,0.04358 0.234956,0.04358 0.100425,0 0.214113,-0.04547 0.115583,-0.04737 0.216008,-0.119373 z m -0.180006,0.778765 q -0.06442,0.04169 -0.155374,0.100425 -0.09095,0.05874 -0.168638,0.09285 -0.106109,0.04358 -0.198954,0.06632 -0.09285,0.02274 -0.257694,0.02274 -0.265273,0 -0.43391,-0.147795 -0.166743,-0.149689 -0.166743,-0.388435 0,-0.252009 0.119373,-0.426331 0.119372,-0.176217 0.354328,-0.280431 0.219798,-0.09853 0.522966,-0.14211 0.305064,-0.04358 0.659392,-0.06442 0.0019,-0.01137 0.0076,-0.036 0.0057,-0.02653 0.0057,-0.05874 0,-0.134531 -0.125057,-0.187585 -0.125057,-0.05495 -0.373277,-0.05495 -0.168637,0 -0.373276,0.05684 -0.202744,0.05684 -0.305064,0.09474 h -0.06253 l 0.100424,-0.504018 q 0.119373,-0.03032 0.369487,-0.06821 0.250114,-0.0379 0.498334,-0.0379 0.500228,0 0.733289,0.130741 0.234956,0.130742 0.234956,0.405488 0,0.0379 -0.0076,0.09853 -0.0057,0.06063 -0.01705,0.106109 l -0.333486,1.447631 h -0.67834 z m 2.618621,-2.722834 -0.682129,2.948316 h -0.68592 l 0.68213,-2.948316 z m 4.016985,0.126952 -0.123162,0.534335 h -1.31689 l -0.117478,0.504018 h 1.222149 l -0.125057,0.536229 h -1.222149 l -0.164848,0.712447 h 1.31689 l -0.121268,0.534335 h -2.044494 l 0.651813,-2.821364 z m 2.410193,1.174779 q 0,0.05684 -0.0076,0.123162 -0.0076,0.06632 -0.02463,0.138321 l -0.318327,1.385102 h -0.689709 l 0.242535,-1.055406 q 0.02653,-0.117478 0.04169,-0.20085 0.01516,-0.08337 0.01516,-0.155374 0,-0.123162 -0.06253,-0.180006 -0.06253,-0.05684 -0.229272,-0.05684 -0.08148,0 -0.187585,0.036 -0.106109,0.03411 -0.238746,0.104214 l -0.346749,1.508265 h -0.685919 l 0.490754,-2.127866 h 0.685919 l -0.05495,0.234956 q 0.210323,-0.138321 0.382751,-0.216008 0.174322,-0.07769 0.38275,-0.07769 0.286116,0 0.445279,0.138321 0.159164,0.138321 0.159164,0.401699 z m 2.836525,-0.481281 -0.42823,1.883436 q -0.0701,0.303169 -0.19895,0.504018 -0.12885,0.200849 -0.31265,0.320222 -0.18948,0.123162 -0.41117,0.172427 -0.221692,0.04927 -0.498333,0.04927 -0.229272,0 -0.439595,-0.02842 -0.210323,-0.02653 -0.354328,-0.06253 l 0.104214,-0.522966 h 0.08337 q 0.157269,0.06063 0.318327,0.09664 0.161059,0.036 0.286116,0.036 0.180006,0 0.312643,-0.03411 0.132636,-0.03221 0.208426,-0.09474 0.0815,-0.06632 0.12885,-0.162953 0.0493,-0.09664 0.0796,-0.236851 l 0.009,-0.03979 q -0.1478,0.100424 -0.2937,0.159163 -0.1459,0.05874 -0.329696,0.05874 -0.358118,0 -0.560862,-0.180006 -0.200849,-0.180007 -0.200849,-0.543809 0,-0.627181 0.354328,-1.028879 0.354329,-0.403594 0.860239,-0.403594 0.1819,0 0.3297,0.04358 0.14969,0.04358 0.24064,0.109899 l 0.0474,-0.09474 z m -0.79961,0.49265 q -0.0549,-0.02463 -0.1459,-0.04548 -0.0891,-0.02274 -0.15727,-0.02274 -0.305064,0 -0.490755,0.229271 -0.18569,0.229271 -0.18569,0.589284 0,0.162953 0.07958,0.253904 0.07958,0.09095 0.286116,0.09095 0.100429,0 0.202749,-0.0379 0.10421,-0.03979 0.19516,-0.09285 z m 2.12786,-0.49265 -0.49265,2.127866 h -0.68591 l 0.49264,-2.127866 z m 0.20843,-0.82045 -0.11937,0.517282 h -0.72382 l 0.11938,-0.517282 z m 2.43104,1.301731 q 0,0.05684 -0.008,0.123162 -0.008,0.06632 -0.0246,0.138321 l -0.31832,1.385102 h -0.68971 l 0.24253,-1.055406 q 0.0265,-0.117478 0.0417,-0.20085 0.0152,-0.08337 0.0152,-0.155374 0,-0.123162 -0.0625,-0.180006 -0.0625,-0.05684 -0.22927,-0.05684 -0.0815,0 -0.18759,0.036 -0.10611,0.03411 -0.23874,0.104214 l -0.34675,1.508265 h -0.68592 l 0.49075,-2.127866 h 0.68592 l -0.055,0.234956 q 0.21033,-0.138321 0.38275,-0.216008 0.17432,-0.07769 0.38275,-0.07769 0.28612,0 0.44528,0.138321 0.15917,0.138321 0.15917,0.401699 z m 1.99523,0.308853 q 0.006,-0.03411 0.008,-0.06253 0.004,-0.02842 0.004,-0.05874 0,-0.149689 -0.0928,-0.229271 -0.0928,-0.07958 -0.26717,-0.07958 -0.21032,0 -0.35432,0.113688 -0.14212,0.113689 -0.21601,0.316433 z m -0.52107,1.394576 q -0.54381,0 -0.8394,-0.24064 -0.29559,-0.24064 -0.29559,-0.665077 0,-0.289905 0.0966,-0.53244 0.0966,-0.242535 0.27854,-0.426331 0.17432,-0.178111 0.4358,-0.282326 0.26149,-0.104214 0.57413,-0.104214 0.4756,0 0.71624,0.19327 0.24253,0.191375 0.24253,0.566547 0,0.128847 -0.0265,0.252009 -0.0246,0.123162 -0.0663,0.24443 h -1.58027 q 0,0.01137 0,0.02274 0,0.0095 0,0.02084 0,0.221692 0.15537,0.346749 0.15538,0.125057 0.4756,0.125057 0.22359,0 0.42254,-0.07579 0.20085,-0.07579 0.34864,-0.168637 h 0.0758 l -0.12695,0.547598 q -0.19896,0.08716 -0.41876,0.130742 -0.21979,0.04547 -0.46801,0.04547 z m 3.098,-1.394576 q 0.006,-0.03411 0.008,-0.06253 0.004,-0.02842 0.004,-0.05874 0,-0.149689 -0.0929,-0.229271 -0.0928,-0.07958 -0.26717,-0.07958 -0.21032,0 -0.35432,0.113688 -0.14211,0.113689 -0.21601,0.316433 z m -0.52107,1.394576 q -0.54381,0 -0.8394,-0.24064 -0.29559,-0.24064 -0.29559,-0.665077 0,-0.289905 0.0966,-0.53244 0.0966,-0.242535 0.27854,-0.426331 0.17432,-0.178111 0.43581,-0.282326 0.26148,-0.104214 0.57412,-0.104214 0.4756,0 0.71624,0.19327 0.24253,0.191375 0.24253,0.566547 0,0.128847 -0.0265,0.252009 -0.0246,0.123162 -0.0663,0.24443 h -1.58027 q 0,0.01137 0,0.02274 0,0.0095 0,0.02084 0,0.221692 0.15537,0.346749 0.15538,0.125057 0.4756,0.125057 0.22359,0 0.42254,-0.07579 0.20085,-0.07579 0.34865,-0.168637 h 0.0758 l -0.12695,0.547598 q -0.19896,0.08716 -0.41876,0.130742 -0.21979,0.04547 -0.46801,0.04547 z m 3.26285,-1.534792 h -0.0606 q -0.0455,-0.01516 -0.12885,-0.02274 -0.0834,-0.0076 -0.16485,-0.0076 -0.13453,0 -0.25959,0.02084 -0.12505,0.01895 -0.25769,0.06253 l -0.32969,1.424893 h -0.68592 L 111.2442,24.7451 h 0.68591 l -0.072,0.312643 q 0.19327,-0.14211 0.38465,-0.231166 0.19327,-0.08906 0.38843,-0.08906 0.036,0 0.0796,0.0019 0.0455,0.0019 0.0796,0.0057 z m 1.22026,-0.649918 -0.49265,2.127866 h -0.68592 l 0.49265,-2.127866 z m 0.20843,-0.82045 -0.11938,0.517282 h -0.72381 l 0.11937,-0.517282 z m 2.43103,1.301731 q 0,0.05684 -0.008,0.123162 -0.008,0.06632 -0.0246,0.138321 l -0.31833,1.385102 h -0.68971 l 0.24254,-1.055406 q 0.0265,-0.117478 0.0417,-0.20085 0.0152,-0.08337 0.0152,-0.155374 0,-0.123162 -0.0625,-0.180006 -0.0625,-0.05684 -0.22927,-0.05684 -0.0815,0 -0.18758,0.036 -0.10611,0.03411 -0.23875,0.104214 l -0.34675,1.508265 h -0.68592 l 0.49076,-2.127866 h 0.68592 l -0.055,0.234956 q 0.21032,-0.138321 0.38275,-0.216008 0.17432,-0.07769 0.38275,-0.07769 0.28611,0 0.44528,0.138321 0.15916,0.138321 0.15916,0.401699 z m 2.83652,-0.481281 -0.42822,1.883436 q -0.0701,0.303169 -0.19896,0.504018 -0.12885,0.200849 -0.31264,0.320222 -0.18948,0.123162 -0.41117,0.172427 -0.2217,0.04927 -0.49834,0.04927 -0.22927,0 -0.43959,-0.02842 -0.21033,-0.02653 -0.35433,-0.06253 l 0.10421,-0.522966 h 0.0834 q 0.15727,0.06063 0.31833,0.09664 0.16106,0.036 0.28612,0.036 0.18,0 0.31264,-0.03411 0.13264,-0.03221 0.20843,-0.09474 0.0815,-0.06632 0.12885,-0.162953 0.0493,-0.09664 0.0796,-0.236851 l 0.009,-0.03979 q -0.14779,0.100424 -0.29369,0.159163 -0.1459,0.05874 -0.3297,0.05874 -0.35812,0 -0.56086,-0.180006 -0.20085,-0.180007 -0.20085,-0.543809 0,-0.627181 0.35433,-1.028879 0.35433,-0.403594 0.86024,-0.403594 0.1819,0 0.32969,0.04358 0.14969,0.04358 0.24064,0.109899 l 0.0474,-0.09474 z m -0.79961,0.49265 q -0.055,-0.02463 -0.1459,-0.04548 -0.0891,-0.02274 -0.15726,-0.02274 -0.30507,0 -0.49076,0.229271 -0.18569,0.229271 -0.18569,0.589284 0,0.162953 0.0796,0.253904 0.0796,0.09095 0.28612,0.09095 0.10042,0 0.20274,-0.0379 0.10422,-0.03979 0.19517,-0.09285 z m 4.97766,1.635216 h -0.8015 l -0.63476,-1.142567 -0.2937,0.255798 -0.20464,0.886769 h -0.73139 l 0.64992,-2.821364 h 0.73139 l -0.28611,1.242992 1.2733,-1.242992 h 0.86403 l -1.42489,1.313099 z m 2.78157,-1.646585 q 0,0.05684 -0.008,0.123162 -0.008,0.06632 -0.0246,0.138321 l -0.31833,1.385102 h -0.68971 l 0.24254,-1.055406 q 0.0265,-0.117478 0.0417,-0.20085 0.0152,-0.08337 0.0152,-0.155374 0,-0.123162 -0.0625,-0.180006 -0.0625,-0.05684 -0.22928,-0.05684 -0.0815,0 -0.18758,0.036 -0.10611,0.03411 -0.23875,0.104214 l -0.34675,1.508265 h -0.68592 l 0.49076,-2.127866 h 0.68592 l -0.0549,0.234956 q 0.21032,-0.138321 0.38275,-0.216008 0.17432,-0.07769 0.38275,-0.07769 0.28612,0 0.44528,0.138321 0.15916,0.138321 0.15916,0.401699 z m 2.72663,0.297484 q 0,0.299379 -0.10043,0.560862 -0.10042,0.261483 -0.28233,0.449069 -0.18948,0.195165 -0.43959,0.301274 -0.25011,0.104214 -0.5836,0.104214 -0.4756,0 -0.7295,-0.227376 -0.2539,-0.227377 -0.2539,-0.629076 0,-0.28422 0.0947,-0.540019 0.0947,-0.255799 0.28043,-0.450963 0.18,-0.191376 0.44149,-0.301274 0.26338,-0.111794 0.58928,-0.111794 0.47749,0 0.7295,0.225482 0.25391,0.223587 0.25391,0.619601 z m -0.88677,0.697288 q 0.0872,-0.132636 0.13074,-0.289905 0.0455,-0.157269 0.0455,-0.382751 0,-0.195164 -0.0853,-0.299379 -0.0853,-0.106109 -0.27096,-0.106109 -0.144,0 -0.2539,0.07011 -0.10801,0.07011 -0.19138,0.198955 -0.0777,0.119372 -0.12316,0.295589 -0.0436,0.176217 -0.0436,0.361908 0,0.217902 0.0966,0.312643 0.0966,0.09285 0.26528,0.09285 0.12316,0 0.23685,-0.06632 0.11368,-0.06821 0.19327,-0.187586 z m 4.97954,-1.476053 -1.11225,2.127866 h -0.72382 l -0.14211,-1.434367 -0.71813,1.434367 h -0.73329 l -0.20085,-2.127866 h 0.69729 l 0.0625,1.466579 0.75603,-1.466579 h 0.60444 l 0.13074,1.466579 0.65939,-1.466579 z m 1.28278,-0.82045 -0.68213,2.948316 h -0.68592 l 0.68213,-2.948316 z m 1.68069,1.610584 q 0.006,-0.03411 0.008,-0.06253 0.004,-0.02842 0.004,-0.05874 0,-0.149689 -0.0928,-0.229271 -0.0928,-0.07958 -0.26717,-0.07958 -0.21032,0 -0.35433,0.113688 -0.14211,0.113689 -0.21601,0.316433 z m -0.52107,1.394576 q -0.54381,0 -0.8394,-0.24064 -0.29559,-0.24064 -0.29559,-0.665077 0,-0.289905 0.0966,-0.53244 0.0966,-0.242535 0.27854,-0.426331 0.17432,-0.178111 0.4358,-0.282326 0.26148,-0.104214 0.57413,-0.104214 0.47559,0 0.71623,0.19327 0.24254,0.191375 0.24254,0.566547 0,0.128847 -0.0265,0.252009 -0.0246,0.123162 -0.0663,0.24443 h -1.58026 q 0,0.01137 0,0.02274 0,0.0095 0,0.02084 0,0.221692 0.15537,0.346749 0.15537,0.125057 0.4756,0.125057 0.22358,0 0.42254,-0.07579 0.20085,-0.07579 0.34864,-0.168637 h 0.0758 l -0.12695,0.547598 q -0.19895,0.08716 -0.41875,0.130742 -0.2198,0.04547 -0.46802,0.04547 z m 4.13068,-3.00516 -0.68213,2.948316 h -0.68592 l 0.0512,-0.221692 q -0.0985,0.06253 -0.17432,0.113688 -0.0739,0.04926 -0.16485,0.09095 -0.0853,0.0379 -0.16864,0.05684 -0.0815,0.01895 -0.19706,0.01895 -0.30885,0 -0.49454,-0.200849 -0.1838,-0.20085 -0.1838,-0.570337 0,-0.303168 0.0966,-0.568441 0.0985,-0.267167 0.26906,-0.471806 0.16674,-0.198955 0.39412,-0.316433 0.22737,-0.117478 0.47559,-0.117478 0.17433,0 0.30317,0.036 0.12885,0.03411 0.26527,0.108004 l 0.21033,-0.905717 z m -0.99099,1.316889 q -0.0549,-0.02653 -0.144,-0.04737 -0.0891,-0.02274 -0.15727,-0.02274 -0.16295,0 -0.29369,0.072 -0.13075,0.072 -0.2217,0.19706 -0.0815,0.111793 -0.12884,0.286115 -0.0474,0.172427 -0.0474,0.333486 0,0.191375 0.0891,0.278536 0.0891,0.08716 0.27096,0.08716 0.0928,0 0.19516,-0.04169 0.10422,-0.04169 0.19706,-0.09853 z m 3.51298,-0.496439 -0.42823,1.883436 q -0.0701,0.303169 -0.19895,0.504018 -0.12885,0.200849 -0.31265,0.320222 -0.18948,0.123162 -0.41117,0.172427 -0.22169,0.04927 -0.49833,0.04927 -0.22927,0 -0.4396,-0.02842 -0.21032,-0.02653 -0.35433,-0.06253 l 0.10422,-0.522966 h 0.0834 q 0.15727,0.06063 0.31833,0.09664 0.16105,0.036 0.28611,0.036 0.18001,0 0.31264,-0.03411 0.13264,-0.03221 0.20843,-0.09474 0.0815,-0.06632 0.12885,-0.162953 0.0493,-0.09664 0.0796,-0.236851 l 0.009,-0.03979 q -0.1478,0.100424 -0.2937,0.159163 -0.1459,0.05874 -0.3297,0.05874 -0.35811,0 -0.56086,-0.180006 -0.20085,-0.180007 -0.20085,-0.543809 0,-0.627181 0.35433,-1.028879 0.35433,-0.403594 0.86024,-0.403594 0.1819,0 0.3297,0.04358 0.14969,0.04358 0.24064,0.109899 l 0.0474,-0.09474 z m -0.79961,0.49265 q -0.0549,-0.02463 -0.1459,-0.04548 -0.0891,-0.02274 -0.15727,-0.02274 -0.30506,0 -0.49075,0.229271 -0.1857,0.229271 -0.1857,0.589284 0,0.162953 0.0796,0.253904 0.0796,0.09095 0.28611,0.09095 0.10043,0 0.20275,-0.0379 0.10421,-0.03979 0.19516,-0.09285 z m 2.67167,0.297484 q 0.006,-0.03411 0.008,-0.06253 0.004,-0.02842 0.004,-0.05874 0,-0.149689 -0.0928,-0.229271 -0.0928,-0.07958 -0.26717,-0.07958 -0.21032,0 -0.35432,0.113688 -0.14211,0.113689 -0.21601,0.316433 z m -0.52107,1.394576 q -0.54381,0 -0.8394,-0.24064 -0.29559,-0.24064 -0.29559,-0.665077 0,-0.289905 0.0966,-0.53244 0.0966,-0.242535 0.27854,-0.426331 0.17432,-0.178111 0.43581,-0.282326 0.26148,-0.104214 0.57412,-0.104214 0.4756,0 0.71624,0.19327 0.24253,0.191375 0.24253,0.566547 0,0.128847 -0.0265,0.252009 -0.0246,0.123162 -0.0663,0.24443 h -1.58027 q 0,0.01137 0,0.02274 0,0.0095 0,0.02084 0,0.221692 0.15537,0.346749 0.15538,0.125057 0.4756,0.125057 0.22359,0 0.42254,-0.07579 0.20085,-0.07579 0.34865,-0.168637 h 0.0758 l -0.12695,0.547598 q -0.19896,0.08716 -0.41876,0.130742 -0.21979,0.04547 -0.46801,0.04547 z"
       id="text7"
       aria-label="Preserving Critical Engineering Knowledge" />
  </g>
</svg>
